<svg width="49" height="32" viewBox="0 0 49 32" fill="none" xmlns="http://www.w3.org/2000/svg">
<path d="M8.19959 26.9178V30.0156H4.18588V26.9178M44.3982 26.9178V30.0156H40.3845V26.9178M4.0939 13.7352H44.4819C45.3024 13.7352 46.0894 14.0633 46.6696 14.6475C47.2498 15.2316 47.5758 16.0238 47.5758 16.8499V26.9515H1V16.8499C1 16.4408 1.08003 16.0358 1.23551 15.6579C1.39099 15.28 1.61889 14.9367 1.90618 14.6475C2.19348 14.3582 2.53455 14.1288 2.90992 13.9723C3.28529 13.8158 3.6876 13.7352 4.0939 13.7352ZM43.9886 4.66902V13.7352H4.61234V4.66902C4.61234 4.18854 4.70647 3.71273 4.88937 3.26893C5.07227 2.82513 5.34032 2.42204 5.67819 2.08268C6.01607 1.74332 6.41711 1.47434 6.85837 1.29123C7.29964 1.10813 7.77257 1.01453 8.24984 1.01563H40.3594C40.836 1.01563 41.308 1.1101 41.7483 1.2937C42.1886 1.4773 42.5886 1.74641 42.9256 2.08566C43.2626 2.42491 43.5298 2.82763 43.7122 3.27088C43.8945 3.71414 43.9886 4.18925 43.9886 4.66902ZM21.2608 8.5497V13.7352H10.7082V8.5497C10.7082 8.27509 10.8164 8.01172 11.0093 7.81754C11.2022 7.62337 11.4639 7.5143 11.7367 7.5143H20.2323C20.5051 7.5143 20.7668 7.62337 20.9597 7.81754C21.1526 8.01172 21.2608 8.27509 21.2608 8.5497ZM37.8843 8.5497V13.7352H27.3315V8.5497C27.3315 8.27509 27.44 8.01172 27.6329 7.81754C27.8257 7.62337 28.0873 7.5143 28.36 7.5143H36.8559C37.1286 7.5143 37.3901 7.62337 37.583 7.81754C37.7759 8.01172 37.8843 8.27509 37.8843 8.5497Z" stroke="#DCBEB6" stroke-width="2" stroke-miterlimit="10"/>
</svg>
