<svg width="44" height="43" viewBox="0 0 44 43" fill="none" xmlns="http://www.w3.org/2000/svg">
<path d="M31.601 42V18.5975H12.399V42M31.601 42H12.399M31.601 42H43V25.012H31.601M31.601 42V25.012M12.399 42V25.012M12.399 42H1V25.012H12.399M12.399 25.012H31.601M20.1786 0V4.88731L11.8937 11.619C11.8876 11.6296 11.8844 11.6416 11.8843 11.6537C11.8842 11.6659 11.8873 11.6779 11.8932 11.6886C11.8991 11.6992 11.9074 11.7081 11.9178 11.7144C11.9282 11.7208 11.9404 11.7243 11.9526 11.7247H32.0946C32.1068 11.7243 32.1186 11.7208 32.129 11.7144C32.1394 11.7081 32.148 11.6992 32.154 11.6886C32.1599 11.6779 32.163 11.6659 32.1629 11.6537C32.1628 11.6416 32.1595 11.6296 32.1534 11.619L23.9273 4.88731V0M12.399 29.8758H1M43 29.8758H31.601M16.4298 29.1944H27.5702V38.0643H16.4298V29.1944Z" stroke="#DCBEB6" stroke-width="2" stroke-miterlimit="10"/>
<circle cx="6.65388" cy="33.1148" r="0.807692" fill="#DCBEB6"/>
<circle cx="37.3463" cy="33.1148" r="0.807692" fill="#DCBEB6"/>
<circle cx="0.807692" cy="0.807692" r="0.807692" transform="matrix(1 0 0 -1 16.3462 22.616)" fill="#DCBEB6"/>
<circle cx="0.807692" cy="0.807692" r="0.807692" transform="matrix(1 0 0 -1 26.0386 22.616)" fill="#DCBEB6"/>
<circle cx="0.807692" cy="0.807692" r="0.807692" transform="matrix(1 0 0 -1 21.1924 22.616)" fill="#DCBEB6"/>
</svg>
