<svg width="32" height="41" viewBox="0 0 32 41" fill="none" xmlns="http://www.w3.org/2000/svg">
<path d="M27.2834 29.6605H4.74474M5.4122 23.5481H26.6159M16.0141 18.2928L16.0141 23.513M16.0141 29.6605V40.9018M10.6745 40.9298C10.6697 40.2065 10.8106 39.4897 11.089 38.8221C11.4982 37.8554 12.1825 37.0302 13.057 36.4494C13.9314 35.8685 14.9573 35.5576 16.0071 35.5552C17.0356 35.5552 18.0422 35.8522 18.9059 36.4106C19.7696 36.9689 20.4537 37.7649 20.876 38.7027C21.187 39.394 21.3474 40.1437 21.3466 40.9018M25.548 18.2928V7.05161C25.5461 5.61432 24.9739 4.23654 23.9569 3.22088C22.9399 2.20522 21.5614 1.63476 20.1241 1.63477H11.904C10.4667 1.63476 9.0882 2.20522 8.07122 3.22088C7.05425 4.23654 6.482 5.61432 6.48013 7.05161V18.2928H25.548ZM31 19.3326C31 18.7513 30.7691 18.1937 30.358 17.7826C29.9469 17.3715 29.3893 17.1406 28.808 17.1406C28.2266 17.1406 27.669 17.3715 27.258 17.7826C26.8469 18.1937 26.6159 18.7513 26.6159 19.3326V29.6605H31V19.3326ZM5.4122 19.3326C5.4122 18.7513 5.18126 18.1937 4.77018 17.7826C4.35909 17.3715 3.80153 17.1406 3.22017 17.1406C2.92995 17.1369 2.64185 17.1908 2.37265 17.2993C2.10345 17.4078 1.85851 17.5687 1.65198 17.7726C1.44544 17.9765 1.28138 18.2194 1.16947 18.4872C1.05756 18.755 0.999976 19.0424 1 19.3326V29.6605H5.38407L5.4122 19.3326Z" stroke="#DCBEB6" stroke-width="2" stroke-miterlimit="10"/>
</svg>
